<?xml version="1.0" encoding="UTF-8" standalone="no"?>
<svg width="11px" height="18px" viewBox="0 0 11 18" version="1.1" xmlns="http://www.w3.org/2000/svg" xmlns:xlink="http://www.w3.org/1999/xlink">
    <g id="Page-1" stroke="none" stroke-width="1" fill="none" fill-rule="evenodd">
        <g id="Home-New-Copy-8" transform="translate(-40.000000, -245.000000)" stroke="#CACACA" stroke-width="0.800455941">
            <g id="Menu-left" transform="translate(29.000000, 157.000000)">
                <g id="Group-16-Copy-2" transform="translate(11.000000, 86.000000)">
                    <g id="Group-9" transform="translate(0.000000, 2.000000)">
                        <path d="M0.878531828,9.00677055 L7.23017478,0.97004327 C7.76941125,0.287747915 8.45055893,0.599792944 8.25142204,1.45018393 L6.92550547,7.11235687 C6.88494763,7.2855544 6.96919623,7.39184098 7.14855735,7.39184098 L9.37548223,7.39184098 C10.3836602,7.39184098 10.7447788,8.2027337 10.0799546,8.95981494 L2.9661799,17.0607616 C2.37976867,17.7285485 1.73476009,17.3373032 2.02621522,16.507553 L4.02465556,10.8181479 C4.07913616,10.6630458 4.0313864,10.5936647 3.87501399,10.5936647 L1.6480891,10.5936647 C0.651068129,10.5936647 0.26111156,9.78799178 0.878531828,9.00677055 Z" id="camera_flash@2x"></path>
                    </g>
                </g>
            </g>
        </g>
    </g>
</svg>